<svg width="69" height="68" viewBox="0 0 69 68" fill="none" xmlns="http://www.w3.org/2000/svg">
<rect x="0.5" width="68" height="68" rx="34" fill="#19D235" fill-opacity="0.06"/>
<mask id="mask0_222_5862" style="mask-type:alpha" maskUnits="userSpaceOnUse" x="20" y="20" width="29" height="28">
<rect x="20.5" y="20" width="28" height="28" fill="#D9D9D9"/>
</mask>
<g mask="url(#mask0_222_5862)">
<path d="M31.6403 37.675L41.5278 27.7875C41.7611 27.5542 42.0333 27.4375 42.3444 27.4375C42.6556 27.4375 42.9278 27.5542 43.1611 27.7875C43.3945 28.0208 43.5111 28.2979 43.5111 28.6187C43.5111 28.9396 43.3945 29.2167 43.1611 29.45L32.4569 40.1833C32.2236 40.4167 31.9514 40.5333 31.6403 40.5333C31.3292 40.5333 31.0569 40.4167 30.8236 40.1833L25.8069 35.1667C25.5736 34.9333 25.4618 34.6562 25.4715 34.3354C25.4813 34.0146 25.6028 33.7375 25.8361 33.5042C26.0694 33.2708 26.3465 33.1542 26.6674 33.1542C26.9882 33.1542 27.2653 33.2708 27.4986 33.5042L31.6403 37.675Z" fill="#19D235"/>
</g>
</svg>
