<svg width="167" height="24" viewBox="0 0 167 24" fill="none" xmlns="http://www.w3.org/2000/svg">
<rect width="20.7801" height="24" rx="10.3901" fill="#151515"/>
<path d="M10.404 16.8996C11.0803 16.8996 11.6293 16.8251 12.0512 16.6762C12.8515 16.3909 13.2517 15.8604 13.2517 15.0849C13.2517 14.632 13.0531 14.2815 12.6561 14.0334C12.259 13.7914 11.6355 13.5774 10.7856 13.3912L9.33386 13.0655C7.90695 12.7429 6.92052 12.3924 6.37457 12.014C5.45019 11.3812 4.98799 10.3916 4.98799 9.04538C4.98799 7.81699 5.43468 6.79644 6.32805 5.98373C7.22141 5.17101 8.53355 4.76465 10.2645 4.76465C11.71 4.76465 12.9415 5.14929 13.9589 5.91858C14.9826 6.68167 15.5192 7.79218 15.5688 9.25011H12.8143C12.7646 8.42498 12.4048 7.83871 11.7348 7.49129C11.2881 7.26174 10.7329 7.14697 10.069 7.14697C9.33076 7.14697 8.74138 7.29586 8.3009 7.59365C7.86042 7.89144 7.64018 8.30711 7.64018 8.84065C7.64018 9.33076 7.85732 9.69679 8.2916 9.93875C8.57078 10.1 9.16635 10.2893 10.0783 10.5064L12.442 11.0741C13.4781 11.3222 14.2598 11.6541 14.7871 12.0698C15.6061 12.715 16.0155 13.6487 16.0155 14.8709C16.0155 16.1241 15.5347 17.1664 14.5731 17.9977C13.6177 18.8228 12.2652 19.2354 10.5157 19.2354C8.72898 19.2354 7.32378 18.829 6.30013 18.0163C5.27647 17.1974 4.76465 16.0745 4.76465 14.6475H7.50059C7.58745 15.2741 7.75806 15.7425 8.01242 16.0527C8.47772 16.6173 9.27492 16.8996 10.404 16.8996Z" fill="white"/>
<path d="M165.211 12.8842H158.548V16.4111H166.141V18.8772H155.746V5.16028H165.806V7.58913H158.548V10.5019H165.211V12.8842Z" fill="#151515"/>
<path d="M149.241 18.5421C148.484 19.0074 147.554 19.24 146.45 19.24C144.632 19.24 143.143 18.6103 141.983 17.3509C140.773 16.0853 140.168 14.3544 140.168 12.1582C140.168 9.93719 140.779 8.15665 142.001 6.8166C143.224 5.47655 144.84 4.80652 146.85 4.80652C148.593 4.80652 149.992 5.2501 151.047 6.13727C152.108 7.01823 152.716 8.11943 152.871 9.44087H150.051C149.834 8.50408 149.303 7.84956 148.46 7.47732C147.988 7.27259 147.464 7.17023 146.887 7.17023C145.783 7.17023 144.874 7.58899 144.16 8.42653C143.453 9.25786 143.099 10.5111 143.099 12.1861C143.099 13.8736 143.484 15.0679 144.253 15.7689C145.023 16.47 145.897 16.8205 146.878 16.8205C147.839 16.8205 148.627 16.5444 149.241 15.9922C149.856 15.4339 150.234 14.7049 150.377 13.8054H147.203V11.5161H152.917V18.8771H151.019L150.73 17.1648C150.178 17.8162 149.682 18.2753 149.241 18.5421Z" fill="#151515"/>
<path d="M135.264 16.1039H138.083V18.877H135.264V16.1039Z" fill="#151515"/>
<path d="M126.758 19.2586C124.798 19.2586 123.299 18.725 122.263 17.658C120.874 16.3489 120.179 14.4629 120.179 12C120.179 9.48736 120.874 7.60136 122.263 6.34195C123.299 5.27487 124.798 4.74133 126.758 4.74133C128.719 4.74133 130.217 5.27487 131.253 6.34195C132.636 7.60136 133.328 9.48736 133.328 12C133.328 14.4629 132.636 16.3489 131.253 17.658C130.217 18.725 128.719 19.2586 126.758 19.2586ZM129.466 15.5734C130.13 14.7359 130.462 13.5447 130.462 12C130.462 10.4614 130.127 9.27332 129.457 8.43579C128.793 7.59205 127.893 7.17018 126.758 7.17018C125.623 7.17018 124.717 7.58895 124.041 8.42648C123.365 9.26402 123.026 10.4552 123.026 12C123.026 13.5447 123.365 14.7359 124.041 15.5734C124.717 16.411 125.623 16.8297 126.758 16.8297C127.893 16.8297 128.796 16.411 129.466 15.5734Z" fill="#151515"/>
<path d="M114.949 16.0575H109.896L108.947 18.8772H105.951L110.845 5.16028H114.084L118.942 18.8772H115.833L114.949 16.0575ZM114.149 13.6938L112.437 8.29638L110.669 13.6938H114.149Z" fill="#151515"/>
<path d="M101.325 18.8772V12.7539H95.9644V18.8772H93.1261V5.16028H95.9644V10.3902H101.325V5.16028H104.172V18.8772H101.325Z" fill="#151515"/>
<path d="M85.412 16.8949C86.0882 16.8949 86.6373 16.8205 87.0591 16.6716C87.8594 16.3862 88.2596 15.8558 88.2596 15.0803C88.2596 14.6274 88.0611 14.2769 87.664 14.0287C87.267 13.7868 86.6435 13.5727 85.7935 13.3866L84.3418 13.0609C82.9149 12.7383 81.9285 12.3878 81.3825 12.0093C80.4581 11.3765 79.9959 10.387 79.9959 9.04074C79.9959 7.81236 80.4426 6.79181 81.336 5.97909C82.2293 5.16637 83.5415 4.76001 85.2724 4.76001C86.7179 4.76001 87.9494 5.14465 88.9668 5.91395C89.9905 6.67703 90.5271 7.78754 90.5768 9.24547H87.8222C87.7726 8.42034 87.4128 7.83407 86.7427 7.48665C86.296 7.2571 85.7408 7.14233 85.077 7.14233C84.3387 7.14233 83.7493 7.29122 83.3088 7.58901C82.8684 7.8868 82.6481 8.30247 82.6481 8.83601C82.6481 9.32612 82.8653 9.69215 83.2995 9.93411C83.5787 10.0954 84.1743 10.2846 85.0863 10.5018L87.45 11.0694C88.486 11.3176 89.2677 11.6495 89.7951 12.0652C90.614 12.7104 91.0235 13.6441 91.0235 14.8663C91.0235 16.1195 90.5426 17.1617 89.581 17.993C88.6256 18.8182 87.2732 19.2307 85.5236 19.2307C83.7369 19.2307 82.3317 18.8244 81.3081 18.0117C80.2844 17.1927 79.7726 16.0698 79.7726 14.6429H82.5085C82.5954 15.2695 82.766 15.7379 83.0204 16.0481C83.4857 16.6127 84.2829 16.8949 85.412 16.8949Z" fill="#151515"/>
<path d="M74.7753 13.5915V5.16028H77.6881V13.5915C77.6881 15.0494 77.4616 16.1847 77.0087 16.9974C76.165 18.4864 74.5551 19.2308 72.1789 19.2308C69.8028 19.2308 68.1898 18.4864 67.3399 16.9974C66.887 16.1847 66.6605 15.0494 66.6605 13.5915V5.16028H69.5733V13.5915C69.5733 14.5345 69.685 15.2231 69.9083 15.6574C70.2557 16.4267 71.0126 16.8113 72.1789 16.8113C73.3391 16.8113 74.0929 16.4267 74.4403 15.6574C74.6636 15.2231 74.7753 14.5345 74.7753 13.5915Z" fill="#151515"/>
<path d="M53.4085 18.8772H50.7377V5.16028H54.9067L57.4007 15.9459L59.8761 5.16028H63.9986V18.8772H61.3278V9.59921C61.3278 9.33244 61.3309 8.9602 61.3371 8.4825C61.3433 7.99859 61.3464 7.62635 61.3464 7.36578L58.7501 18.8772H55.9676L53.3899 7.36578C53.3899 7.62635 53.393 7.99859 53.3992 8.4825C53.4054 8.9602 53.4085 9.33244 53.4085 9.59921V18.8772Z" fill="#151515"/>
<path d="M45.0429 16.0575H39.9898L39.0406 18.8772H36.0441L40.939 5.16028H44.1775L49.0351 18.8772H45.927L45.0429 16.0575ZM44.2426 13.6938L42.5303 8.29638L40.7622 13.6938H44.2426Z" fill="#151515"/>
<path d="M29.2783 16.8949C29.9545 16.8949 30.5036 16.8205 30.9255 16.6716C31.7258 16.3862 32.1259 15.8558 32.1259 15.0803C32.1259 14.6274 31.9274 14.2769 31.5303 14.0287C31.1333 13.7868 30.5098 13.5727 29.6599 13.3866L28.2081 13.0609C26.7812 12.7383 25.7948 12.3878 25.2488 12.0093C24.3245 11.3765 23.8623 10.387 23.8623 9.04074C23.8623 7.81236 24.3089 6.79181 25.2023 5.97909C26.0957 5.16637 27.4078 4.76001 29.1387 4.76001C30.5842 4.76001 31.8157 5.14465 32.8332 5.91395C33.8568 6.67703 34.3935 7.78754 34.4431 9.24547H31.6885C31.6389 8.42034 31.2791 7.83407 30.6091 7.48665C30.1624 7.2571 29.6071 7.14233 28.9433 7.14233C28.205 7.14233 27.6157 7.29122 27.1752 7.58901C26.7347 7.8868 26.5144 8.30247 26.5144 8.83601C26.5144 9.32612 26.7316 9.69215 27.1659 9.93411C27.445 10.0954 28.0406 10.2846 28.9526 10.5018L31.3163 11.0694C32.3524 11.3176 33.1341 11.6495 33.6614 12.0652C34.4803 12.7104 34.8898 13.6441 34.8898 14.8663C34.8898 16.1195 34.409 17.1617 33.4474 17.993C32.492 18.8182 31.1395 19.2307 29.39 19.2307C27.6032 19.2307 26.198 18.8244 25.1744 18.0117C24.1507 17.1927 23.6389 16.0698 23.6389 14.6429H26.3749C26.4617 15.2695 26.6323 15.7379 26.8867 16.0481C27.352 16.6127 28.1492 16.8949 29.2783 16.8949Z" fill="#151515"/>
</svg>
